# xmcd
#
# Track frame offsets:
#	150
#	19812
#	35622
#	57339
#	78989
#	97256
#	116428
#	136166
#	153275
#	170325
#	184495
#	201392
#
# Disc length: 2925 seconds
#
# Revision: 0
# Processed by: cddbd v1.4PL0 Copyright (c) Steve Scherf et al.
# Submitted via: EasyCDDAExtractor 4.5.0.2
#
DISCID=a30b6b0c
DTITLE=Toni Braxton - The Heat
DYEAR=2000
DGENRE=R&B
TTITLE0=He Wasn't Man Enough
TTITLE1=The Heat
TTITLE2=Spanish Guitar
TTITLE3=Just Be A Man About It
TTITLE4=Gimme Some
TTITLE5=I'm Still Breathing
TTITLE6=Fairy Tale
TTITLE7=The Art Of Love
TTITLE8=Speaking in Tongues
TTITLE9=Maybe
TTITLE10=You've Been Wrong
TTITLE11=Never Just For A Ring
EXTD=
EXTT0=
EXTT1=
EXTT2=
EXTT3=
EXTT4=
EXTT5=
EXTT6=
EXTT7=
EXTT8=
EXTT9=
EXTT10=
EXTT11=
PLAYORDER=
